<svg width="58" height="35" viewBox="0 0 58 35" fill="none" xmlns="http://www.w3.org/2000/svg">
<path d="M58.0002 17.5C58.0002 27.1026 50.2371 35 40.6002 35C31.0525 35 23.2002 27.1026 23.2002 17.5C23.2002 7.89744 30.9633 0 40.511 0C50.2371 0 58.0002 7.89744 58.0002 17.5Z" fill="#F9B50B"/>
<path d="M34.7108 17.5897C34.7108 16.3333 34.5323 15.0769 34.3538 13.9103H23.6462C23.7354 13.2821 23.9138 12.7436 24.0923 12.0256H33.64C33.4615 11.3974 33.1938 10.7692 32.9262 10.141H24.8062C25.0738 9.51282 25.4308 8.97436 25.7877 8.25641H31.9446C31.5877 7.6282 31.1415 7 30.6062 6.37179H27.2154C27.7508 5.74359 28.2862 5.20513 29 4.57692C25.9662 1.70513 21.8615 0 17.3108 0C7.85231 0.269231 0 7.89744 0 17.5C0 27.1026 7.76308 35 17.4 35C21.9508 35 25.9662 33.2051 29.0892 30.4231C29.7138 29.8846 30.2492 29.2564 30.8738 28.5385H27.3046C26.8585 28 26.4123 27.3718 26.0554 26.7436H32.1231C32.48 26.2051 32.8369 25.5769 33.1046 24.859H24.9846C24.7169 24.3205 24.4492 23.6923 24.2708 22.9744H33.8185C34.3538 21.359 34.7108 19.5641 34.7108 17.5897Z" fill="#C8191C"/>
<path d="M23.5568 21.9872L23.8245 20.3718C23.7353 20.3718 23.5568 20.4616 23.3783 20.4616C22.7537 20.4616 22.6645 20.1026 22.7537 19.9231L23.2891 16.6924H24.2707L24.5383 14.8975H23.646L23.8245 13.8206H21.9507C21.9507 13.8206 20.8799 19.9231 20.8799 20.6411C20.8799 21.718 21.5045 22.2565 22.3968 22.2565C22.9322 22.2565 23.3783 22.077 23.5568 21.9872Z" fill="white"/>
<path d="M24.1816 19.0258C24.1816 21.6284 25.9663 22.2566 27.3939 22.2566C28.7324 22.2566 29.357 21.9874 29.357 21.9874L29.7139 20.1925C29.7139 20.1925 28.7324 20.6412 27.7509 20.6412C25.6986 20.6412 26.0555 19.1156 26.0555 19.1156H29.8032C29.8032 19.1156 30.0709 17.9489 30.0709 17.4105C30.0709 16.2438 29.4463 14.7182 27.3939 14.7182C25.6093 14.6284 24.1816 16.6925 24.1816 19.0258ZM27.3939 16.3335C28.3755 16.3335 28.197 17.5002 28.197 17.5899H26.1447C26.2339 17.5002 26.4124 16.3335 27.3939 16.3335Z" fill="white"/>
<path d="M39.0822 21.9872L39.4392 19.9231C39.4392 19.9231 38.5469 20.3718 37.833 20.3718C36.5838 20.3718 35.9592 19.3846 35.9592 18.218C35.9592 15.9744 37.0299 14.8077 38.3684 14.8077C39.2607 14.8077 40.0638 15.3462 40.0638 15.3462L40.3315 13.3718C40.3315 13.3718 39.2607 12.9231 38.1899 12.9231C36.0484 12.9231 33.9961 14.8077 33.9961 18.3077C33.9961 20.641 35.0669 22.1667 37.2976 22.1667C38.1007 22.2564 39.0822 21.9872 39.0822 21.9872Z" fill="white"/>
<path d="M13.4741 14.6284C12.2249 14.6284 11.2434 14.9874 11.2434 14.9874L10.9757 16.6028C10.9757 16.6028 11.7788 16.2438 13.028 16.2438C13.6526 16.2438 14.188 16.3335 14.188 16.872C14.188 17.231 14.0988 17.3207 14.0988 17.3207H13.2957C11.6895 17.3207 9.99414 17.9489 9.99414 20.1028C9.99414 21.8079 11.0649 22.1669 11.7788 22.1669C13.028 22.1669 13.6526 21.3592 13.7418 21.3592L13.6526 22.0771H15.1695L15.8834 16.9618C15.8834 14.7182 14.0988 14.6284 13.4741 14.6284ZM13.8311 18.7566C13.8311 19.0259 13.6526 20.5515 12.5818 20.5515C12.0464 20.5515 11.868 20.1028 11.868 19.8335C11.868 19.3848 12.1357 18.7566 13.5634 18.7566C13.7418 18.7566 13.8311 18.7566 13.8311 18.7566Z" fill="white"/>
<path d="M17.6673 22.1668C18.1134 22.1668 20.4334 22.2565 20.4334 19.7437C20.4334 17.4104 18.2027 17.8591 18.2027 16.9617C18.2027 16.5129 18.5596 16.3334 19.1842 16.3334C19.4519 16.3334 20.4334 16.4232 20.4334 16.4232L20.7011 14.7181C20.7011 14.7181 20.0765 14.5386 18.9165 14.5386C17.5781 14.5386 16.1504 15.077 16.1504 16.9617C16.1504 19.1155 18.4704 18.936 18.4704 19.7437C18.4704 20.2822 17.8458 20.3719 17.3996 20.3719C16.5965 20.3719 15.7042 20.1027 15.7042 20.1027L15.4365 21.8078C15.615 21.9873 16.1504 22.1668 17.6673 22.1668Z" fill="white"/>
<path d="M54.4306 13.1924L54.0737 15.7052C54.0737 15.7052 53.3599 14.8078 52.2891 14.8078C50.5937 14.8078 49.166 16.8719 49.166 19.2949C49.166 20.8206 49.8799 22.3462 51.486 22.3462C52.5568 22.3462 53.2706 21.6283 53.2706 21.6283L53.1814 22.2565H55.0552L56.3937 13.3719L54.4306 13.1924ZM53.5383 18.0385C53.5383 19.0257 53.0922 20.3719 52.0214 20.3719C51.3968 20.3719 51.0399 19.8334 51.0399 18.8462C51.0399 17.3206 51.6645 16.4232 52.5568 16.4232C53.1814 16.5129 53.5383 16.9616 53.5383 18.0385Z" fill="white"/>
<path d="M3.39106 22.077L4.46183 15.436L4.64029 22.077H5.88952L8.29875 15.436L7.31721 22.077H9.28029L10.7972 13.1924H7.76337L5.88952 18.6667L5.80029 13.1924H3.12337L1.60645 22.077H3.39106Z" fill="white"/>
<path d="M31.9449 22.0768C32.4803 19.0256 32.5695 16.5127 33.908 16.9615C34.0864 15.7948 34.3541 15.2563 34.5326 14.8076H34.1757C33.3726 14.8076 32.6587 15.8845 32.6587 15.8845L32.8372 14.8974H31.0526L29.8926 22.0768H31.9449Z" fill="white"/>
<path d="M43.3667 14.6284C42.1175 14.6284 41.1359 14.9874 41.1359 14.9874L40.8683 16.6028C40.8683 16.6028 41.6713 16.2438 42.9206 16.2438C43.5452 16.2438 44.0806 16.3335 44.0806 16.872C44.0806 17.231 43.9913 17.3207 43.9913 17.3207H43.1883C41.5821 17.3207 39.8867 17.9489 39.8867 20.1028C39.8867 21.8079 40.9575 22.1669 41.6713 22.1669C42.9206 22.1669 43.5452 21.3592 43.6344 21.3592L43.5452 22.0771H45.2406L45.9544 16.9618C45.9544 14.7182 43.9913 14.6284 43.3667 14.6284ZM43.8129 18.7566C43.8129 19.0259 43.6344 20.5515 42.5636 20.5515C42.0283 20.5515 41.8498 20.1028 41.8498 19.8335C41.8498 19.3848 42.1175 18.7566 43.5452 18.7566C43.7236 18.7566 43.7236 18.7566 43.8129 18.7566Z" fill="white"/>
<path d="M47.3814 22.0768C47.9168 19.0256 48.006 16.5127 49.3445 16.9615C49.5229 15.7948 49.7906 15.2563 49.9691 14.8076H49.6122C48.8091 14.8076 48.0953 15.8845 48.0953 15.8845L48.2737 14.8974H46.4891L45.3291 22.0768H47.3814Z" fill="white"/>
</svg>
