<svg width="40" height="40" viewBox="0 0 40 40" fill="none" xmlns="http://www.w3.org/2000/svg">
<path d="M20 0C8.95422 0 0 8.95422 0 20C0 31.0458 8.95422 40 20 40C31.0458 40 40 31.0458 40 20C40 8.95422 31.0458 0 20 0Z" fill="#40B3E0"/>
<path d="M29.7318 11.5047L26.1594 29.5155C26.1594 29.5155 25.6599 30.7646 24.286 30.165L16.0425 23.845L13.045 22.3963L7.9991 20.6975C7.9991 20.6975 7.22473 20.4228 7.14973 19.8233C7.07473 19.2238 8.0241 18.8991 8.0241 18.8991L28.0829 11.0303C28.0829 11.0303 29.7316 10.306 29.7316 11.505" fill="white"/>
<path d="M15.4091 29.3132C15.4091 29.3132 15.1685 29.2907 14.8685 28.3413C14.5689 27.3921 13.045 22.3962 13.045 22.3962L25.1604 14.7024C25.1604 14.7024 25.8599 14.2777 25.8349 14.7024C25.8349 14.7024 25.9597 14.7774 25.5849 15.1271C25.2104 15.477 16.0677 23.6952 16.0677 23.6952" fill="#D2E5F1"/>
<path d="M19.2032 26.2679L15.9427 29.2407C15.9427 29.2407 15.6877 29.4341 15.4089 29.3129L16.0333 23.791" fill="#B5CFE4"/>
</svg>
