<svg width="42" height="35" viewBox="0 0 42 35" fill="none" xmlns="http://www.w3.org/2000/svg">
<path fill-rule="evenodd" clip-rule="evenodd" d="M6.10352e-05 2.91667C6.10352e-05 2.14312 0.316131 1.40125 0.878741 0.854272C1.44135 0.307291 2.20441 0 3.00006 0H39.0001C39.7957 0 40.5588 0.307291 41.1214 0.854272C41.684 1.40125 42.0001 2.14312 42.0001 2.91667C42.0001 3.69021 41.684 4.43208 41.1214 4.97906C40.5588 5.52604 39.7957 5.83333 39.0001 5.83333H3.00006C2.20441 5.83333 1.44135 5.52604 0.878741 4.97906C0.316131 4.43208 6.10352e-05 3.69021 6.10352e-05 2.91667Z" fill="#3FC2CD"/>
<path fill-rule="evenodd" clip-rule="evenodd" d="M6.10352e-05 17.4992C6.10352e-05 16.7256 0.316131 15.9838 0.878741 15.4368C1.44135 14.8898 2.20441 14.5825 3.00006 14.5825H39.0001C39.7957 14.5825 40.5588 14.8898 41.1214 15.4368C41.684 15.9838 42.0001 16.7256 42.0001 17.4992C42.0001 18.2727 41.684 19.0146 41.1214 19.5616C40.5588 20.1086 39.7957 20.4159 39.0001 20.4159H3.00006C2.20441 20.4159 1.44135 20.1086 0.878741 19.5616C0.316131 19.0146 6.10352e-05 18.2727 6.10352e-05 17.4992Z" fill="#3FC2CD"/>
<path fill-rule="evenodd" clip-rule="evenodd" d="M6.10352e-05 32.0827C6.10352e-05 31.3091 0.316131 30.5673 0.878741 30.0203C1.44135 29.4733 2.20441 29.166 3.00006 29.166H39.0001C39.7957 29.166 40.5588 29.4733 41.1214 30.0203C41.684 30.5673 42.0001 31.3091 42.0001 32.0827C42.0001 32.8562 41.684 33.5981 41.1214 34.1451C40.5588 34.6921 39.7957 34.9993 39.0001 34.9993H3.00006C2.20441 34.9993 1.44135 34.6921 0.878741 34.1451C0.316131 33.5981 6.10352e-05 32.8562 6.10352e-05 32.0827Z" fill="#3FC2CD"/>
</svg>
