<svg width="42" height="41" viewBox="0 0 42 41" fill="none" xmlns="http://www.w3.org/2000/svg">
<path d="M40.0521 0.758689C39.6696 0.510465 39.242 0.340024 38.7936 0.257103C38.3453 0.174182 37.885 0.180406 37.4391 0.27542C36.9931 0.370434 36.5703 0.552375 36.1946 0.810851C35.819 1.06933 35.498 1.39927 35.25 1.78184L15.794 31.7714L6.30553 22.9983C5.97076 22.6887 5.57831 22.4482 5.15057 22.2903C4.72284 22.1324 4.2682 22.0604 3.81261 22.0782C2.89251 22.1143 2.02441 22.5143 1.39928 23.1904C0.774146 23.8665 0.443193 24.7632 0.479224 25.6833C0.515256 26.6034 0.91532 27.4715 1.59141 28.0967L14.0497 39.6152C14.0497 39.6152 14.4074 39.923 14.5729 40.0307C14.9554 40.2791 15.3831 40.4497 15.8316 40.5327C16.28 40.6157 16.7405 40.6095 17.1865 40.5145C17.6326 40.4195 18.0556 40.2375 18.4313 39.9789C18.807 39.7203 19.1281 39.3903 19.3761 39.0075L41.0752 5.56077C41.3234 5.17831 41.4939 4.75069 41.5768 4.30235C41.6597 3.854 41.6535 3.39371 41.5585 2.94777C41.4635 2.50183 41.2815 2.07897 41.023 1.70336C40.7646 1.32776 40.4346 1.00675 40.0521 0.758689Z" fill="white"/>
</svg>
