<svg width="26" height="26" viewBox="0 0 26 26" fill="none" xmlns="http://www.w3.org/2000/svg">
<path d="M18.0637 9.8756C18.1758 9.77111 18.2662 9.64557 18.3297 9.50615C18.3933 9.36673 18.4288 9.21615 18.4341 9.06302C18.4395 8.90989 18.4146 8.7572 18.361 8.61367C18.3073 8.47015 18.226 8.33859 18.1215 8.22652C18.017 8.11445 17.8914 8.02405 17.752 7.9605C17.6126 7.89694 17.462 7.86147 17.3089 7.85611C17.1558 7.85074 17.0031 7.8756 16.8595 7.92924C16.716 7.98289 16.5845 8.06428 16.4724 8.16877L13.0587 11.3514L9.87604 7.9366C9.66309 7.71849 9.37322 7.59239 9.06847 7.58528C8.76372 7.57817 8.46829 7.69062 8.2454 7.89857C8.02251 8.10653 7.88986 8.39345 7.87584 8.69797C7.86182 9.00248 7.96754 9.30038 8.17038 9.52794L11.353 12.9416L7.93821 16.1243C7.82218 16.2277 7.72799 16.3533 7.66116 16.4936C7.59434 16.6339 7.55624 16.7862 7.54909 16.9415C7.54194 17.0968 7.56589 17.2519 7.61953 17.3978C7.67317 17.5437 7.75543 17.6774 7.86147 17.791C7.9675 17.9047 8.09518 17.996 8.237 18.0596C8.37882 18.1232 8.53192 18.1579 8.68732 18.1615C8.84271 18.1651 8.99727 18.1377 9.1419 18.0807C9.28653 18.0238 9.41833 17.9385 9.52954 17.8299L12.9432 14.6484L16.1259 18.0621C16.2286 18.1803 16.3541 18.2765 16.4949 18.3452C16.6357 18.4138 16.7888 18.4534 16.9452 18.4616C17.1016 18.4698 17.258 18.4464 17.4052 18.3929C17.5524 18.3393 17.6872 18.2567 17.8018 18.1499C17.9163 18.0431 18.0082 17.9143 18.0719 17.7713C18.1357 17.6282 18.1699 17.4738 18.1727 17.3172C18.1755 17.1606 18.1467 17.0051 18.0881 16.8599C18.0295 16.7147 17.9422 16.5827 17.8315 16.4719L14.65 13.0583L18.0637 9.8756Z" fill="#A2A2A2"/>
<path fill-rule="evenodd" clip-rule="evenodd" d="M0.166992 13.0003C0.166992 5.91283 5.91283 0.166992 13.0003 0.166992C20.0878 0.166992 25.8337 5.91283 25.8337 13.0003C25.8337 20.0878 20.0878 25.8337 13.0003 25.8337C5.91283 25.8337 0.166992 20.0878 0.166992 13.0003ZM13.0003 23.5003C11.6214 23.5003 10.2561 23.2287 8.98215 22.7011C7.70823 22.1734 6.55072 21.4 5.5757 20.4249C4.60069 19.4499 3.82727 18.2924 3.29959 17.0185C2.77192 15.7446 2.50033 14.3792 2.50033 13.0003C2.50033 11.6214 2.77192 10.2561 3.29959 8.98215C3.82727 7.70823 4.60069 6.55072 5.5757 5.5757C6.55072 4.60069 7.70823 3.82727 8.98215 3.29959C10.2561 2.77192 11.6214 2.50033 13.0003 2.50033C15.7851 2.50033 18.4558 3.60657 20.4249 5.5757C22.3941 7.54484 23.5003 10.2156 23.5003 13.0003C23.5003 15.7851 22.3941 18.4558 20.4249 20.4249C18.4558 22.3941 15.7851 23.5003 13.0003 23.5003Z" fill="#A2A2A2"/>
</svg>
