<svg width="38" height="38" viewBox="0 0 38 38" fill="none" xmlns="http://www.w3.org/2000/svg">
<path d="M5.50132 1.69434L19.0013 15.1943L32.4458 1.74989C32.6814 1.49911 32.9652 1.29849 33.2802 1.16006C33.5953 1.02164 33.935 0.948265 34.2791 0.944336C35.0158 0.944336 35.7224 1.23699 36.2433 1.75793C36.7642 2.27886 37.0569 2.9854 37.0569 3.72211C37.0634 4.06267 37.0002 4.40097 36.8712 4.71623C36.7422 5.03149 36.5502 5.31707 36.3069 5.55545L22.7235 18.9999L36.3069 32.5832C36.7647 33.0311 37.0332 33.6376 37.0569 34.2777C37.0569 35.0144 36.7642 35.7209 36.2433 36.2419C35.7224 36.7628 35.0158 37.0555 34.2791 37.0555C33.9251 37.0701 33.5719 37.011 33.2419 36.8819C32.912 36.7528 32.6125 36.5565 32.3624 36.3054L19.0013 22.8054L5.5291 36.2777C5.29439 36.5201 5.014 36.7136 4.7041 36.8471C4.39421 36.9806 4.06094 37.0514 3.72354 37.0555C2.98683 37.0555 2.28029 36.7628 1.75936 36.2419C1.23842 35.7209 0.945764 35.0144 0.945764 34.2777C0.939288 33.9371 1.00247 33.5988 1.13145 33.2836C1.26042 32.9683 1.45245 32.6827 1.69576 32.4443L15.2791 18.9999L1.69576 5.41656C1.23794 4.96867 0.969486 4.36215 0.945764 3.72211C0.945764 2.9854 1.23842 2.27886 1.75936 1.75793C2.28029 1.23699 2.98683 0.944336 3.72354 0.944336C4.39021 0.952669 5.0291 1.22211 5.50132 1.69434Z" fill="white"/>
</svg>
