<svg width="25" height="21" viewBox="0 0 25 21" fill="none" xmlns="http://www.w3.org/2000/svg">
<path fill-rule="evenodd" clip-rule="evenodd" d="M9.7546 14.5179C10.5352 15.0408 11.4865 15.357 12.4989 15.357C15.1822 15.357 17.3654 13.1801 17.3654 10.5046C17.3654 9.49515 17.0483 8.54654 16.5238 7.7682L15.1944 9.09381C15.4139 9.50731 15.5359 9.99377 15.5359 10.5046C15.5359 12.1707 14.1698 13.5328 12.4989 13.5328C11.9866 13.5328 11.4987 13.4112 11.084 13.1923L9.7546 14.5179ZM20.536 3.76705C22.3045 5.37238 23.8047 7.53714 24.9268 10.1397C25.0244 10.3708 25.0244 10.6383 24.9268 10.8572C22.3167 16.9137 17.6697 20.5379 12.4983 20.5379H12.4861C10.1321 20.5379 7.87569 19.7717 5.88761 18.3731L3.52143 20.7324C3.33848 20.9149 3.10674 21 2.875 21C2.64326 21 2.39932 20.9149 2.22857 20.7324C1.92365 20.4284 1.87486 19.9419 2.1188 19.5893L2.15539 19.5406L20.1945 1.55364L20.1945 1.55363C20.2189 1.52931 20.2432 1.50499 20.2554 1.48067C20.2798 1.45635 20.3042 1.43203 20.3164 1.4077L21.4629 0.264514C21.8288 -0.0881714 22.4021 -0.0881714 22.7558 0.264514C23.1217 0.6172 23.1217 1.20096 22.7558 1.55364L20.536 3.76705ZM7.623 10.5093C7.623 10.8255 7.65959 11.1417 7.70838 11.4336L3.19556 15.9334C1.97588 14.5226 0.91476 12.82 0.0731808 10.862C-0.0243936 10.6431 -0.0243936 10.3756 0.0731808 10.1445C2.6833 4.08802 7.33028 0.476029 12.4895 0.476029H12.5017C14.2459 0.476029 15.9412 0.889522 17.5024 1.66786L13.4287 5.72983C13.136 5.68118 12.8188 5.6447 12.5017 5.6447C9.80623 5.6447 7.623 7.82162 7.623 10.5093Z" fill="#A2A2A2"/>
</svg>
