<svg width="50" height="48" viewBox="0 0 50 48" fill="none" xmlns="http://www.w3.org/2000/svg">
<path d="M49.1708 12.7053C48.8633 12.2778 48.4505 12.0641 47.9325 12.0641H14.9576L12.4323 3.65722C12.2057 2.89728 11.8981 2.24816 11.5096 1.70987C11.1211 1.17158 10.7083 0.791605 10.2712 0.569956C9.83417 0.348306 9.45375 0.197901 9.12999 0.118741C8.80623 0.0395803 8.48247 0 8.15872 0H1.50548C1.08459 0 0.728457 0.142489 0.437074 0.427467C0.145691 0.712445 0 1.07658 0 1.51988C0 1.7732 0.0647517 2.01859 0.194255 2.25608C0.323759 2.49356 0.50992 2.67563 0.752739 2.80228C0.995558 2.92894 1.24647 2.99227 1.50548 2.99227H8.15872C8.28822 2.99227 8.40963 3.0081 8.52295 3.03976C8.63626 3.07143 8.79005 3.206 8.9843 3.44348C9.17856 3.68096 9.34044 4.03719 9.46994 4.51215L18.0657 35.3848C18.1305 35.5747 18.2357 35.7568 18.3814 35.931C18.5271 36.1051 18.6971 36.2397 18.8913 36.3347C19.0856 36.4297 19.296 36.4772 19.5226 36.4772H40.5022C40.826 36.4772 41.1254 36.3822 41.4006 36.1922C41.6758 36.0022 41.862 35.7647 41.9591 35.4798L49.3894 14.1064C49.5513 13.5998 49.4784 13.1327 49.1708 12.7053ZM39.4338 33.4374H20.7367L15.7832 15.1038H45.6985L39.4338 33.4374ZM36.3743 39.5169C35.3059 39.5169 34.3913 39.889 33.6304 40.6331C32.8696 41.3772 32.4892 42.2717 32.4892 43.3166C32.4892 44.3616 32.8696 45.2561 33.6304 46.0002C34.3913 46.7443 35.3059 47.1164 36.3743 47.1164C37.4427 47.1164 38.3573 46.7443 39.1181 46.0002C39.879 45.2561 40.2594 44.3616 40.2594 43.3166C40.2594 42.2717 39.879 41.3772 39.1181 40.6331C38.3573 39.889 37.4427 39.5169 36.3743 39.5169ZM22.3879 39.5169C21.6756 39.5169 21.02 39.6911 20.4211 40.0394C19.8221 40.3877 19.3527 40.8468 19.0127 41.4168C18.6728 41.9867 18.5028 42.62 18.5028 43.3166C18.5028 44.3616 18.8832 45.2561 19.6441 46.0002C20.4049 46.7443 21.3195 47.1164 22.3879 47.1164C23.4563 47.1164 24.3709 46.7443 25.1318 46.0002C25.8926 45.2561 26.273 44.3616 26.273 43.3166C26.273 43.0633 26.2487 42.81 26.2002 42.5567C26.1516 42.3034 26.0788 42.0659 25.9816 41.8443C25.8845 41.6226 25.7631 41.4089 25.6174 41.2031C25.4717 40.9972 25.3098 40.8073 25.1318 40.6331C24.9537 40.459 24.7594 40.3006 24.549 40.1581C24.3386 40.0156 24.12 39.8969 23.8934 39.8019C23.6668 39.7069 23.4239 39.6357 23.1649 39.5882C22.9059 39.5407 22.6469 39.5169 22.3879 39.5169Z" fill="black"/>
</svg>
