<svg width="47" height="52" viewBox="0 0 47 52" fill="none" xmlns="http://www.w3.org/2000/svg">
<path d="M5.22222 52H41.7777C43.1628 52 44.491 51.4522 45.4704 50.477C46.4498 49.5019 47 48.1793 47 46.8002V23.4011C47.0019 23.059 46.9361 22.7198 46.8061 22.403C46.6762 22.0863 46.4847 21.7981 46.2427 21.5552L25.3539 0.756031C24.8646 0.271798 24.2029 0 23.513 0C22.8232 0 22.1614 0.271798 21.6722 0.756031L0.783332 21.5552C0.536614 21.796 0.340337 22.0831 0.205874 22.4C0.0714103 22.7169 0.00143415 23.0571 0 23.4011V46.8002C0 48.1793 0.550196 49.5019 1.52955 50.477C2.50891 51.4522 3.8372 52 5.22222 52ZM18.2778 46.8002V33.8007H28.7222V46.8002H18.2778ZM5.22222 24.4671L23.5 6.26781L41.7777 24.4671V46.8002H33.9444V33.8007C33.9444 32.4216 33.3942 31.0991 32.4149 30.1239C31.4355 29.1488 30.1072 28.6009 28.7222 28.6009H18.2778C16.8927 28.6009 15.5645 29.1488 14.5851 30.1239C13.6057 31.0991 13.0555 32.4216 13.0555 33.8007V46.8002H5.22222V24.4671Z" fill="#A2A2A2"/>
</svg>
