<svg width="48" height="48" viewBox="0 0 48 48" fill="none" xmlns="http://www.w3.org/2000/svg">
<path d="M23.5682 47.1362C20.0048 47.1463 16.4865 46.3401 13.2831 44.7794C12.1107 44.2091 10.9874 43.543 9.92463 42.7879L9.60174 42.5522C6.67894 40.3948 4.28928 37.5964 2.61617 34.3717C0.885655 31.0342 -0.0118833 27.3276 0.000118806 23.5681C0.000118806 10.5514 10.5515 0 23.5682 0C36.5848 0 47.1362 10.5514 47.1362 23.5681C47.1481 27.3258 46.2514 31.0307 44.5225 34.367C42.8518 37.5898 40.4655 40.3873 37.5464 42.5452C36.4458 43.3512 35.2768 44.0606 34.0536 44.6663L33.8651 44.7606C30.6596 46.3295 27.137 47.1423 23.5682 47.1362ZM23.5682 35.3522C21.836 35.3488 20.1366 35.8239 18.6573 36.7251C17.178 37.6263 15.9764 38.9186 15.185 40.4594C17.7911 41.7502 20.66 42.4218 23.5682 42.4218C26.4764 42.4218 29.3453 41.7502 31.9513 40.4594V40.4476C31.1589 38.9085 29.9568 37.6182 28.4775 36.719C26.9982 35.8199 25.2993 35.3469 23.5682 35.3522ZM23.5682 30.6386C26.0762 30.6414 28.5386 31.3096 30.704 32.5749C32.8695 33.8402 34.6605 35.6574 35.8943 37.841L35.9273 37.8103L35.9603 37.7821L35.9202 37.8174L35.8966 37.8363C38.807 35.3218 40.8789 31.9775 41.8342 28.2518C42.7894 24.5262 42.5825 20.5975 41.241 16.9929C39.8996 13.3882 37.4878 10.2801 34.3293 8.08534C31.1708 5.89063 27.4167 4.71437 23.5705 4.71437C19.7244 4.71437 15.9702 5.89063 12.8117 8.08534C9.65323 10.2801 7.24147 13.3882 5.90003 16.9929C4.55859 20.5975 4.35162 24.5262 5.3069 28.2518C6.26219 31.9775 8.33402 35.3218 11.2444 37.8363C12.479 35.6537 14.2703 33.8376 16.4357 32.5732C18.6011 31.3088 21.063 30.6412 23.5705 30.6386H23.5682ZM23.5682 28.2817C21.0679 28.2817 18.6701 27.2885 16.9021 25.5206C15.1342 23.7526 14.141 21.3548 14.141 18.8545C14.141 16.3542 15.1342 13.9564 16.9021 12.1884C18.6701 10.4205 21.0679 9.42725 23.5682 9.42725C26.0684 9.42725 28.4663 10.4205 30.2342 12.1884C32.0022 13.9564 32.9954 16.3542 32.9954 18.8545C32.9954 21.3548 32.0022 23.7526 30.2342 25.5206C28.4663 27.2885 26.0684 28.2817 23.5682 28.2817ZM23.5682 14.1409C22.318 14.1409 21.1191 14.6375 20.2351 15.5215C19.3512 16.4054 18.8546 17.6044 18.8546 18.8545C18.8546 20.1046 19.3512 21.3036 20.2351 22.1875C21.1191 23.0715 22.318 23.5681 23.5682 23.5681C24.8183 23.5681 26.0172 23.0715 26.9012 22.1875C27.7852 21.3036 28.2818 20.1046 28.2818 18.8545C28.2818 17.6044 27.7852 16.4054 26.9012 15.5215C26.0172 14.6375 24.8183 14.1409 23.5682 14.1409Z" fill="black"/>
<path fill-rule="evenodd" clip-rule="evenodd" d="M16.902 25.5206C18.67 27.2885 21.0678 28.2817 23.5681 28.2817C26.0683 28.2817 28.4662 27.2885 30.2341 25.5206C32.0021 23.7526 32.9953 21.3548 32.9953 18.8545C32.9953 16.3542 32.0021 13.9564 30.2341 12.1884C28.4662 10.4205 26.0683 9.42725 23.5681 9.42725C21.0678 9.42725 18.67 10.4205 16.902 12.1884C15.1341 13.9564 14.1409 16.3542 14.1409 18.8545C14.1409 21.3548 15.1341 23.7526 16.902 25.5206ZM20.2351 15.5215C21.119 14.6375 22.318 14.1409 23.5681 14.1409C24.8182 14.1409 26.0171 14.6375 26.9011 15.5215C27.7851 16.4054 28.2817 17.6044 28.2817 18.8545C28.2817 20.1046 27.7851 21.3036 26.9011 22.1875C26.0171 23.0715 24.8182 23.5681 23.5681 23.5681C22.318 23.5681 21.119 23.0715 20.2351 22.1875C19.3511 21.3036 18.8545 20.1046 18.8545 18.8545C18.8545 17.6044 19.3511 16.4054 20.2351 15.5215Z" fill="#3FC2CD"/>
</svg>
