<svg width="26" height="26" viewBox="0 0 26 26" fill="none" xmlns="http://www.w3.org/2000/svg">
<path d="M11.1429 22.2857C4.97143 22.2857 0 17.3143 0 11.1429C0 4.97143 4.97143 0 11.1429 0C17.3143 0 22.2857 4.97143 22.2857 11.1429C22.2857 17.3143 17.3143 22.2857 11.1429 22.2857ZM11.1429 1.71429C5.91429 1.71429 1.71429 5.91429 1.71429 11.1429C1.71429 16.3714 5.91429 20.5714 11.1429 20.5714C16.3714 20.5714 20.5714 16.3714 20.5714 11.1429C20.5714 5.91429 16.3714 1.71429 11.1429 1.71429Z" fill="black"/>
<path d="M19.582 18.5713L26 24.9893L24.9894 25.9999L18.5714 19.5819L19.582 18.5713Z" fill="black"/>
</svg>
